<?xml version="1.0" ?><svg id="Layer_1" style="enable-background:new 0 0 512 512;" version="1.1" viewBox="0 0 512 512" xml:space="preserve" xmlns="http://www.w3.org/2000/svg" xmlns:xlink="http://www.w3.org/1999/xlink"><style type="text/css">
	.st0{fill:#25D366;}
	.st1{fill:#FFFFFF;}
	.st2{fill:#FF0000;}
	.st3{fill:#3D5A98;}
	.st4{fill:url(#SVGID_1_);}
	.st5{fill:url(#SVGID_2_);}
	.st6{fill:#55ADEE;}
	.st7{fill:#1E96C8;}
	.st8{fill:#A9C9DD;}
	.st9{fill:#C8DAEA;}
	.st10{fill:none;}
	.st11{fill:#4787F3;}
	.st12{fill:#DC483C;}
	.st13{fill:#FFCE43;}
	.st14{fill:#149F5C;}
	.st15{fill:#CE1E5B;}
	.st16{fill:#72C5CD;}
	.st17{fill:#DFA22F;}
	.st18{fill:#3CB187;}
	.st19{fill:#248C73;}
	.st20{fill:#392538;}
	.st21{fill:#BB242A;}
	.st22{fill:none;stroke:#3CB187;stroke-miterlimit:10;}
	.st23{fill:#009A57;}
	.st24{fill:#FCCD37;}
	.st25{fill:#2771F0;}
</style><g><path class="st3" d="M469.2,13H42.8C26.3,13,13,26.3,13,42.8v426.4c0,16.4,13.3,29.8,29.8,29.8h426.4c16.4,0,29.8-13.3,29.8-29.8   V42.8C499,26.3,485.7,13,469.2,13z"/><path class="st1" d="M357,164c0.1,0,0.1-0.1,0.2-0.1c7.2-5.6,15-6,17.5-6c16.1,0.4,32.2,0.7,48.3,1.1V86.8h-65   c-11.8,0-23.5,2.1-34.3,6.6c-10.5,4.3-22.3,11.6-32.4,23.7c-20.2,24.4-19.5,51.9-19.1,58.3V238H209v74.8h63.3V499h75.4V312.8h62.2   l11.5-74.8h-73.7v-54.1C347.6,176.2,351,168.8,357,164z"/></g></svg>